<svg xmlns="http://www.w3.org/2000/svg" version="1.1" xmlns:xlink="http://www.w3.org/1999/xlink" width="100%" height="100%" id="svgWorkerArea" viewBox="-25 -25 625 625" xmlns:idraw="https://idraw.muisca.co" style="background: white;"><defs id="defsdoc"><pattern id="patternBool" x="0" y="0" width="10" height="10" patternUnits="userSpaceOnUse" patternTransform="rotate(35)"><circle cx="5" cy="5" r="4" style="stroke: none;fill: #ff000070;"></circle></pattern></defs><g id="fileImp-577260348" class="cosito"><path id="pathImp-120505698" fill="#77B255" class="grouped" d="M263.6267 409.1207C333.946 479.4075 450.0283 326.2695 433.4559 326.2695 350.6048 326.2695 193.3291 338.8122 263.6267 409.1207 263.6267 409.1206 263.6267 409.1206 263.6267 409.1207"></path><path id="pathImp-658724160" fill="#77B255" class="grouped" d="M220.8669 420.3887C155.7009 485.5546 51.1026 343.5873 66.465 343.5874 107.6259 343.5873 167.7359 339.8278 204.6403 352.9539 236.5967 364.319 251.138 390.1391 220.8669 420.3887 220.8669 420.3886 220.8669 420.3886 220.8669 420.3887"></path><path id="pathImp-114865621" fill="#F4ABBA" class="grouped" d="M425.7963 230.0546C425.2346 220.3207 423.9057 202.1278 410.6932 184.3887 398.1613 167.6543 369.5863 147.9705 350.9073 156.462 356.4818 138.3555 348.0552 111.898 338.0404 97.1514 325.3033 78.3967 291.9964 55.634 250.0361 64.4604 231.0869 68.4468 204.8779 86.456 199.9948 106.2047 187.2468 90.3128 154.4045 88.1089 135.0124 93.0029 113.1248 98.5234 100.9386 112.2005 94.6186 119.59 94.6186 119.59 94.651 119.536 94.651 119.536 94.651 119.536 94.3269 119.9033 94.3269 119.9033 94.3269 119.9033 94.0352 120.2598 94.0352 120.2599 87.7368 127.7033 76.1448 141.8018 74.0814 164.2728 71.9963 187.4569 82.1839 227.2781 106.7724 229.5469 108.3821 229.6981 110.2727 229.8817 112.3253 230.0979 87.7909 231.1565 73.7357 269.5734 73.4872 292.7575 73.2495 315.4661 83.4911 330.6341 89.0765 338.5962 89.0765 338.5962 89.044 338.553 89.044 338.553 89.1467 338.674 89.2363 338.8036 89.3141 338.9419 89.3898 339.0607 89.5302 339.1904 89.595 339.3309 95.2452 347.2497 106.0702 361.9531 127.5689 369.3211 148.7219 376.5485 187.5601 376.408 198.5147 355.9681 195.5654 380.2108 231.2166 400.0134 254.3574 403.9135 277.2066 407.7811 294.438 400.0458 303.5128 395.7785 303.5128 395.7785 303.4588 395.8109 303.4588 395.8109 303.6014 395.7266 303.7494 395.651 303.9017 395.5841 303.9017 395.584 304.3447 395.368 304.3447 395.368 313.3979 391.0466 330.2512 382.6416 341.746 362.5257 349.6217 348.6757 355.4663 325.7618 352.02 308.3467 352.02 308.3467 354.0943 309.7187 354.0943 309.7188 373.8212 322.9421 404.1139 297.6298 415.7276 277.9784 427.0063 258.9537 425.7963 230.1842 425.7963 230.0546 425.7963 230.0546 425.7963 230.0546 425.7963 230.0546"></path><path id="pathImp-191096999" fill="#EA596E" class="grouped" d="M349.4056 206.1575C330.1108 195.3865 296.7499 201.4688 276.029 209.485 273.1791 204.4387 269.3126 200.0396 264.6747 196.5641 279.7238 179.2031 302.7674 146.9442 280.534 127.833 256.8638 107.4902 240.1294 151.1035 241.9119 188.386 241.1773 188.3535 240.4859 188.1699 239.7405 188.1699 228.7318 188.1699 218.7819 192.5128 211.3059 199.4595 196.1704 174.8601 168.719 153.6099 153.8968 173.6178 137.8861 195.2461 166.299 207.6808 199.5086 218.992 198.5363 222.5462 197.8449 226.2086 197.8449 230.0654 197.8449 234.9918 198.8496 239.648 200.4161 244.0342 172.9647 251.9423 133.0462 273.3978 154.9339 297.0788 177.8587 321.8833 203.2466 283.7042 215.476 264.0961 222.5436 269.1942 231.0362 271.9426 239.7513 271.9501 242.182 271.9501 244.5155 271.6368 246.8275 271.2371 245.6499 323.1149 262.4168 347.617 290.4299 334.8907 315.2237 323.6227 288.9498 277.6435 271.1891 257.4844 274.603 253.5736 277.2822 249.0685 279.0648 244.0774 354.7749 271.5612 371.855 218.6786 349.4056 206.1575 349.4056 206.1575 349.4056 206.1575 349.4056 206.1575"></path><path id="pathImp-225416391" fill="#BE1931" class="grouped" d="M243.1543 248.4744C235.8188 248.4744 235.9377 242.4029 234.1659 234.9702 228.4185 210.8462 208.443 166.8224 184.4595 135.9788 176.7999 126.1325 182.6726 111.6862 195.0296 109.9764 200.764 109.1831 206.4876 111.5091 210.042 116.0789 236.3914 149.9583 245.3042 196.0671 253.061 228.661 255.1245 237.3685 255.6214 245.9572 246.9139 248.0207 245.6834 248.3199 244.4216 248.4722 243.1543 248.4744 243.1543 248.4744 243.1543 248.4744 243.1543 248.4744"></path><path id="pathImp-384454777" fill="#FFCC4D" class="grouped" d="M223.6758 117.4078C229.0559 124.7972 224.5293 137.2643 213.5638 145.2589 213.5638 145.2588 208.4322 149.0076 208.4322 149.0077 197.456 156.9913 184.2002 157.4883 178.8202 150.0988 178.8202 150.0988 148.7868 108.8622 148.7868 108.8623 143.4067 101.4727 147.9333 89.0056 158.8987 81.022 158.8987 81.0219 164.0303 77.2732 164.0303 77.2732 174.9958 69.2895 188.2515 68.7925 193.6316 76.1821 193.6316 76.182 223.6758 117.4077 223.6758 117.4078 223.6758 117.4077 223.6758 117.4077 223.6758 117.4078"></path></g></svg>