<svg xmlns="http://www.w3.org/2000/svg" xmlns:xlink="http://www.w3.org/1999/xlink" width="400" zoomAndPan="magnify" viewBox="0 0 300 299.999988" height="400" preserveAspectRatio="xMidYMid meet" version="1.0"><rect x="-30" width="360" fill="#ffffff" y="-29.999999" height="359.999986" fill-opacity="1"/><rect x="-30" width="360" fill="#ffffff" y="-29.999999" height="359.999986" fill-opacity="1"/><path fill="#ffffff" d="M 90 90 L 210 90 L 210 210 L 90 210 Z M 90 90 " fill-opacity="1" fill-rule="nonzero"/><path fill="#77b255" d="M 145.417969 173.351562 C 158.917969 186.847656 181.207031 157.445312 178.023438 157.445312 C 162.117188 157.445312 131.917969 159.851562 145.417969 173.351562 " fill-opacity="1" fill-rule="nonzero"/><path fill="#77b255" d="M 137.207031 175.515625 C 124.695312 188.027344 104.613281 160.769531 107.5625 160.769531 C 115.464844 160.769531 127.003906 160.046875 134.089844 162.566406 C 140.226562 164.75 143.019531 169.707031 137.207031 175.515625 " fill-opacity="1" fill-rule="nonzero"/><path fill="#f4abba" d="M 176.554688 138.96875 C 176.445312 137.101562 176.191406 133.609375 173.652344 130.203125 C 171.246094 126.988281 165.761719 123.210938 162.175781 124.839844 C 163.246094 121.363281 161.625 116.285156 159.703125 113.453125 C 157.257812 109.851562 150.863281 105.480469 142.808594 107.175781 C 139.167969 107.941406 134.136719 111.398438 133.199219 115.191406 C 130.75 112.140625 124.445312 111.71875 120.722656 112.65625 C 116.519531 113.714844 114.179688 116.34375 112.964844 117.761719 C 112.964844 117.761719 112.972656 117.75 112.972656 117.75 C 112.972656 117.75 112.910156 117.820312 112.910156 117.820312 C 112.910156 117.820312 112.855469 117.890625 112.855469 117.890625 C 111.644531 119.320312 109.417969 122.027344 109.023438 126.339844 C 108.625 130.792969 110.578125 138.4375 115.300781 138.871094 C 115.609375 138.902344 115.972656 138.9375 116.367188 138.980469 C 111.65625 139.183594 108.957031 146.558594 108.910156 151.007812 C 108.863281 155.371094 110.832031 158.28125 111.902344 159.808594 C 111.902344 159.808594 111.894531 159.800781 111.894531 159.800781 C 111.917969 159.824219 111.933594 159.851562 111.949219 159.875 C 111.960938 159.898438 111.988281 159.925781 112.003906 159.953125 C 113.085938 161.472656 115.164062 164.296875 119.292969 165.710938 C 123.355469 167.097656 130.8125 167.070312 132.914062 163.144531 C 132.347656 167.800781 139.195312 171.601562 143.636719 172.351562 C 148.023438 173.09375 151.332031 171.609375 153.074219 170.789062 C 153.074219 170.789062 153.0625 170.796875 153.0625 170.796875 C 153.089844 170.78125 153.121094 170.765625 153.148438 170.753906 C 153.148438 170.753906 153.234375 170.710938 153.234375 170.710938 C 154.972656 169.882812 158.207031 168.265625 160.414062 164.40625 C 161.925781 161.746094 163.050781 157.347656 162.386719 154.003906 C 162.386719 154.003906 162.785156 154.265625 162.785156 154.265625 C 166.574219 156.804688 172.390625 151.945312 174.621094 148.171875 C 176.785156 144.519531 176.554688 138.996094 176.554688 138.96875 " fill-opacity="1" fill-rule="nonzero"/><path fill="#ea596e" d="M 161.886719 134.382812 C 158.179688 132.3125 151.777344 133.480469 147.796875 135.019531 C 147.25 134.050781 146.507812 133.207031 145.617188 132.539062 C 148.507812 129.207031 152.929688 123.011719 148.664062 119.34375 C 144.117188 115.4375 140.90625 123.8125 141.246094 130.96875 C 141.105469 130.964844 140.972656 130.929688 140.832031 130.929688 C 138.714844 130.929688 136.804688 131.761719 135.371094 133.097656 C 132.464844 128.375 127.195312 124.292969 124.347656 128.132812 C 121.273438 132.289062 126.730469 134.675781 133.105469 136.847656 C 132.917969 137.527344 132.785156 138.230469 132.785156 138.972656 C 132.785156 139.917969 132.980469 140.8125 133.28125 141.65625 C 128.007812 143.171875 120.34375 147.292969 124.546875 151.839844 C 128.949219 156.601562 133.824219 149.269531 136.171875 145.507812 C 137.527344 146.484375 139.160156 147.011719 140.832031 147.015625 C 141.300781 147.015625 141.746094 146.953125 142.191406 146.878906 C 141.964844 156.839844 145.183594 161.542969 150.5625 159.097656 C 155.324219 156.9375 150.277344 148.109375 146.867188 144.238281 C 147.523438 143.484375 148.039062 142.621094 148.378906 141.664062 C 162.917969 146.941406 166.195312 136.785156 161.886719 134.382812 " fill-opacity="1" fill-rule="nonzero"/><path fill="#be1931" d="M 141.484375 142.507812 C 140.078125 142.507812 140.101562 141.339844 139.761719 139.914062 C 138.65625 135.28125 134.820312 126.828125 130.214844 120.90625 C 128.746094 119.015625 129.875 116.242188 132.246094 115.914062 C 133.347656 115.761719 134.445312 116.210938 135.128906 117.085938 C 140.1875 123.59375 141.898438 132.445312 143.386719 138.703125 C 143.785156 140.375 143.878906 142.023438 142.207031 142.421875 C 141.972656 142.476562 141.730469 142.507812 141.484375 142.507812 " fill-opacity="1" fill-rule="nonzero"/><path fill="#ffcc4d" d="M 137.746094 117.34375 C 138.777344 118.761719 137.910156 121.15625 135.804688 122.691406 C 135.804688 122.691406 134.820312 123.410156 134.820312 123.410156 C 132.710938 124.941406 130.167969 125.039062 129.132812 123.617188 C 129.132812 123.617188 123.367188 115.703125 123.367188 115.703125 C 122.335938 114.28125 123.203125 111.890625 125.308594 110.355469 C 125.308594 110.355469 126.292969 109.636719 126.292969 109.636719 C 128.398438 108.105469 130.945312 108.007812 131.976562 109.425781 C 131.976562 109.425781 137.746094 117.34375 137.746094 117.34375 " fill-opacity="1" fill-rule="nonzero"/><rect x="-30" width="360" fill="#ffffff" y="-29.999999" height="359.999986" fill-opacity="1"/><path fill="#77b255" d="M 138.539062 208.378906 C 172.292969 242.117188 228.011719 168.609375 220.058594 168.609375 C 180.289062 168.609375 104.796875 174.628906 138.539062 208.378906 " fill-opacity="1" fill-rule="nonzero"/><path fill="#77b255" d="M 118.015625 213.785156 C 86.738281 245.066406 36.527344 176.921875 43.902344 176.921875 C 63.660156 176.921875 92.511719 175.117188 110.226562 181.417969 C 125.566406 186.875 132.546875 199.265625 118.015625 213.785156 " fill-opacity="1" fill-rule="nonzero"/><path fill="#f4abba" d="M 216.382812 122.425781 C 216.113281 117.753906 215.476562 109.019531 209.132812 100.507812 C 203.117188 92.472656 189.402344 83.027344 180.433594 87.101562 C 183.109375 78.410156 179.066406 65.710938 174.257812 58.632812 C 168.144531 49.628906 152.160156 38.703125 132.015625 42.941406 C 122.921875 44.855469 110.339844 53.5 107.996094 62.976562 C 101.878906 55.351562 86.113281 54.292969 76.804688 56.640625 C 66.300781 59.292969 60.449219 65.855469 57.417969 69.402344 C 57.417969 69.402344 57.433594 69.378906 57.433594 69.378906 C 57.433594 69.378906 57.277344 69.554688 57.277344 69.554688 C 57.277344 69.554688 57.136719 69.726562 57.136719 69.726562 C 54.113281 73.296875 48.550781 80.066406 47.558594 90.851562 C 46.558594 101.980469 51.449219 121.09375 63.25 122.183594 C 64.023438 122.253906 64.929688 122.34375 65.917969 122.445312 C 54.140625 122.957031 47.394531 141.394531 47.273438 152.523438 C 47.160156 163.421875 52.074219 170.703125 54.757812 174.527344 C 54.757812 174.527344 54.742188 174.503906 54.742188 174.503906 C 54.789062 174.5625 54.832031 174.625 54.871094 174.691406 C 54.90625 174.75 54.972656 174.8125 55.003906 174.878906 C 57.71875 178.679688 62.914062 185.738281 73.234375 189.273438 C 83.386719 192.742188 102.027344 192.675781 107.285156 182.863281 C 105.871094 194.5 122.984375 204.007812 134.089844 205.878906 C 145.058594 207.734375 153.332031 204.023438 157.6875 201.972656 C 157.6875 201.972656 157.660156 201.988281 157.660156 201.988281 C 157.730469 201.949219 157.800781 201.914062 157.871094 201.878906 C 157.871094 201.878906 158.085938 201.777344 158.085938 201.777344 C 162.429688 199.703125 170.519531 195.667969 176.039062 186.011719 C 179.820312 179.363281 182.625 168.367188 180.96875 160.007812 C 180.96875 160.007812 181.964844 160.664062 181.964844 160.664062 C 191.433594 167.011719 205.976562 154.863281 211.550781 145.429688 C 216.964844 136.296875 216.382812 122.488281 216.382812 122.425781 " fill-opacity="1" fill-rule="nonzero"/><path fill="#ea596e" d="M 179.714844 110.957031 C 170.453125 105.785156 154.441406 108.703125 144.492188 112.554688 C 143.125 110.128906 141.269531 108.019531 139.042969 106.351562 C 146.265625 98.015625 157.328125 82.535156 146.65625 73.359375 C 135.292969 63.59375 127.261719 84.53125 128.117188 102.425781 C 127.765625 102.410156 127.433594 102.320312 127.074219 102.320312 C 121.792969 102.320312 117.015625 104.40625 113.425781 107.742188 C 106.160156 95.933594 92.984375 85.734375 85.871094 95.335938 C 78.183594 105.71875 91.824219 111.6875 107.765625 117.117188 C 107.296875 118.820312 106.964844 120.582031 106.964844 122.429688 C 106.964844 124.796875 107.449219 127.03125 108.199219 129.136719 C 95.023438 132.933594 75.863281 143.230469 86.367188 154.597656 C 97.371094 166.503906 109.558594 148.179688 115.429688 138.765625 C 118.820312 141.214844 122.898438 142.53125 127.082031 142.535156 C 128.246094 142.535156 129.367188 142.386719 130.476562 142.195312 C 129.910156 167.09375 137.960938 178.855469 151.40625 172.746094 C 163.308594 167.339844 150.695312 145.269531 142.171875 135.59375 C 143.808594 133.714844 145.09375 131.554688 145.949219 129.15625 C 182.292969 142.347656 190.492188 116.964844 179.714844 110.957031 " fill-opacity="1" fill-rule="nonzero"/><path fill="#be1931" d="M 128.714844 131.269531 C 125.191406 131.269531 125.25 128.351562 124.398438 124.785156 C 121.640625 113.207031 112.050781 92.074219 100.539062 77.269531 C 96.863281 72.542969 99.683594 65.609375 105.613281 64.789062 C 108.367188 64.40625 111.113281 65.523438 112.820312 67.71875 C 125.46875 83.980469 129.746094 106.113281 133.46875 121.757812 C 134.460938 125.9375 134.699219 130.058594 130.519531 131.050781 C 129.929688 131.195312 129.324219 131.265625 128.714844 131.269531 " fill-opacity="1" fill-rule="nonzero"/><path fill="#ffcc4d" d="M 119.363281 68.355469 C 121.945312 71.902344 119.773438 77.886719 114.511719 81.722656 C 114.511719 81.722656 112.046875 83.523438 112.046875 83.523438 C 106.777344 87.355469 100.417969 87.59375 97.832031 84.046875 C 97.832031 84.046875 83.417969 64.253906 83.417969 64.253906 C 80.835938 60.707031 83.007812 54.722656 88.269531 50.890625 C 88.269531 50.890625 90.734375 49.089844 90.734375 49.089844 C 95.996094 45.257812 102.359375 45.019531 104.941406 48.566406 C 104.941406 48.566406 119.363281 68.355469 119.363281 68.355469 " fill-opacity="1" fill-rule="nonzero"/></svg>